<?xml version="1.0" encoding="UTF-8" standalone="no"?>
<!-- Created with Inkscape (http://www.inkscape.org/) -->

<svg
   width="210mm"
   height="210mm"
   viewBox="0 0 210 210"
   version="1.1"
   id="svg1"
   xml:space="preserve"
   inkscape:version="1.4 (e7c3feb100, 2024-10-09)"
   sodipodi:docname="logo.svg"
   inkscape:export-filename="logo.png"
   inkscape:export-xdpi="96"
   inkscape:export-ydpi="96"
   xmlns:inkscape="http://www.inkscape.org/namespaces/inkscape"
   xmlns:sodipodi="http://sodipodi.sourceforge.net/DTD/sodipodi-0.dtd"
   xmlns:xlink="http://www.w3.org/1999/xlink"
   xmlns="http://www.w3.org/2000/svg"
   xmlns:svg="http://www.w3.org/2000/svg"><sodipodi:namedview
     id="namedview1"
     pagecolor="#ffffff"
     bordercolor="#000000"
     borderopacity="0.25"
     inkscape:showpageshadow="2"
     inkscape:pageopacity="0.0"
     inkscape:pagecheckerboard="0"
     inkscape:deskcolor="#d1d1d1"
     inkscape:document-units="mm"
     inkscape:zoom="0.80858317"
     inkscape:cx="345.66636"
     inkscape:cy="205.29737"
     inkscape:window-width="3432"
     inkscape:window-height="2136"
     inkscape:window-x="0"
     inkscape:window-y="0"
     inkscape:window-maximized="1"
     inkscape:current-layer="layer1" /><defs
     id="defs1"><linearGradient
       inkscape:collect="always"
       xlink:href="#linearGradient2"
       id="linearGradient3"
       x1="47.125481"
       y1="148.7155"
       x2="153.05345"
       y2="148.7155"
       gradientUnits="userSpaceOnUse"
       gradientTransform="matrix(1.0700021,0,0,1.0700021,-2.8618967,-64.020344)" /><linearGradient
       id="linearGradient2"
       inkscape:collect="always"><stop
         style="stop-color:#1097da;stop-opacity:0.99607843;"
         offset="0"
         id="stop2" /><stop
         style="stop-color:#55e076;stop-opacity:0.98823529;"
         offset="1"
         id="stop3" /></linearGradient></defs><g
     inkscape:label="Layer 1"
     inkscape:groupmode="layer"
     id="layer1"><path
       id="path2"
       style="fill:#53de79;fill-opacity:0.98823529;stroke-width:0.444002"
       d="m 103.02507,160.77908 -36.192565,0.29197 -17.566842,17.81751 53.759407,0.86213 0.29197,23.0586 H 64.973435 l 38.926975,0.29139 z" /><path
       style="fill:#139ad6;fill-opacity:0.99607843;stroke-width:0.444002"
       d="m 103.61239,179.75091 0.29187,23.05816 H 25.681636 l 23.350046,-23.93378 z"
       id="path3" /><path
       id="path2-0"
       style="fill:#139ad6;fill-opacity:0.99607843;stroke-width:0.444001"
       d="m 103.99361,160.77908 36.19247,0.29197 17.56678,17.81751 -53.75925,0.86213 -0.29197,23.0586 h 38.3435 l -38.92686,0.29139 z" /><path
       style="fill:#53de79;fill-opacity:0.98823529;stroke-width:0.444001"
       d="m 103.40629,179.75091 -0.29187,23.05816 h 78.2224 l -23.34998,-23.93378 z"
       id="path3-9" /><path
       id="path1"
       style="fill:url(#linearGradient3);stroke-width:1.07"
       d="M 104.23407,4.9969375 C 96.7024,4.9296934 91.410932,5.7458824 84.104332,8.1779947 62.737347,15.290293 20.17818,58.165046 72.898473,120.81158 c 14.456264,18.584 21.96676,31.68772 28.263477,61.67039 0.36748,1.7498 1.82402,2.59457 3.07212,2.73594 1.24811,-0.14137 2.70465,-0.98614 3.07213,-2.73594 6.29671,-29.98267 13.80725,-43.08639 28.26348,-61.67039 C 188.28985,58.165046 145.73075,15.290293 124.36382,8.1779947 117.05723,5.7458824 111.76574,4.9296878 104.23407,4.9969375 Z m 0,26.2026705 c 18.69774,1.03e-4 33.85524,15.157594 33.85535,33.855341 -1.1e-4,18.697751 -15.1576,33.855197 -33.85535,33.855308 C 85.536107,98.910446 70.378279,83.752913 70.378177,65.054949 70.378285,46.35699 85.536111,31.199411 104.23407,31.199608 Z"
       sodipodi:nodetypes="cccscscscccccc" /></g></svg>
